<?xml version="1.0" standalone="no"?>
<!DOCTYPE svg PUBLIC "-//W3C//DTD SVG 20010904//EN"
 "http://www.w3.org/TR/2001/REC-SVG-20010904/DTD/svg10.dtd">
<svg version="1.0" xmlns="http://www.w3.org/2000/svg"
 width="1224.000000pt" height="1273.000000pt" viewBox="0 0 1224.000000 1273.000000"
 preserveAspectRatio="xMidYMid meet">

<g transform="translate(0.000000,1273.000000) scale(0.100000,-0.100000)"
fill="#e5e7eb" stroke="none">
<path d="M8255 12149 c-203 -127 -375 -233 -382 -237 -8 -5 40 -214 166 -722
l178 -715 -58 -3 c-34 -2 -77 3 -103 12 -63 22 -211 39 -270 32 -74 -8 -190
-50 -266 -96 -82 -49 -104 -57 -177 -65 -55 -6 -65 -4 -193 52 -130 56 -138
58 -220 58 -76 0 -101 -6 -228 -49 l-142 -50 -73 12 c-48 7 -97 24 -148 50
l-75 39 -28 -22 c-33 -26 -31 -29 81 -83 147 -71 266 -76 395 -17 154 70 251
70 405 0 112 -50 188 -67 273 -60 l55 5 -55 -27 c-82 -40 -147 -37 -285 12
-173 60 -264 50 -481 -56 -83 -41 -110 -49 -155 -49 -63 0 -142 21 -211 56
l-47 24 -16 -30 c-14 -28 -14 -30 7 -44 13 -8 52 -27 88 -42 55 -24 78 -29
150 -28 113 1 175 17 300 77 103 50 107 52 195 51 71 0 108 -6 175 -28 72 -23
101 -27 188 -27 125 1 168 17 285 104 121 89 276 135 362 107 40 -13 180 -16
246 -5 36 6 39 5 39 -16 0 -12 -17 -41 -38 -63 -40 -43 -96 -133 -150 -242
-56 -111 -92 -295 -92 -467 0 -101 -19 -247 -41 -315 -6 -18 -47 -83 -91 -144
-44 -62 -86 -124 -93 -139 -30 -57 -68 -170 -106 -314 -37 -142 -68 -359 -95
-667 -6 -72 -8 -78 -29 -78 -27 0 -86 -38 -143 -93 -33 -32 -47 -57 -62 -108
-36 -121 -75 -160 -282 -291 -123 -77 -218 -126 -363 -188 -155 -66 -204 -81
-223 -69 -13 8 -64 0 -202 -31 -253 -57 -241 -56 -257 -34 -20 28 -17 33 42
60 30 14 57 30 61 35 3 5 -3 22 -13 37 -10 15 -18 38 -18 52 0 20 -6 26 -27
28 -26 3 -26 4 -12 37 16 40 18 75 4 75 -5 0 -10 15 -10 34 0 26 5 36 21 41
31 10 17 29 -32 43 -106 32 -128 53 -143 137 -9 48 -47 92 -90 101 -17 4 -41
13 -53 21 -26 18 -146 37 -223 37 -38 0 -69 -8 -100 -24 -25 -13 -59 -24 -76
-25 -31 -2 -78 -29 -104 -60 -7 -8 -25 -15 -41 -15 -22 0 -43 -15 -94 -67
l-66 -68 5 -100 c2 -55 12 -135 22 -177 l17 -77 99 -88 c55 -48 105 -89 111
-91 7 -2 32 -13 57 -25 25 -11 71 -23 102 -25 56 -4 57 -5 65 -41 11 -42 1
-59 -84 -145 -80 -80 -131 -213 -148 -386 -5 -55 -16 -93 -41 -143 l-34 -67
24 -23 24 -22 -10 -170 c-5 -94 -8 -291 -6 -439 l3 -269 55 -49 c30 -28 69
-59 85 -69 59 -37 119 -15 136 51 7 28 8 22 5 -30 -6 -84 -34 -384 -45 -479
-9 -75 -45 -157 -141 -326 -47 -83 -91 -216 -124 -375 -33 -159 -105 -351
-167 -449 l-51 -80 27 -47 c15 -25 35 -53 46 -62 10 -9 22 -32 25 -52 4 -19
15 -50 26 -67 l20 -33 -161 0 c-102 0 -161 4 -161 10 0 6 10 30 21 55 23 49
66 91 117 112 44 19 40 27 -10 19 -54 -9 -119 -46 -153 -88 -25 -31 -26 -31
-20 -8 13 50 46 108 81 144 39 40 37 43 -7 21 -34 -18 -89 -89 -89 -116 0 -10
-4 -21 -10 -24 -6 -4 -8 5 -5 22 2 15 9 58 15 95 6 37 13 76 16 85 5 16 4 16
-10 -1 -8 -10 -21 -44 -27 -75 -14 -64 -28 -98 -29 -68 0 34 -32 88 -61 102
-41 22 -44 19 -15 -15 23 -28 31 -50 51 -135 l7 -30 -24 22 c-32 30 -72 44
-108 37 -36 -8 -40 -24 -5 -24 41 0 125 -90 125 -135 0 -3 -22 -5 -48 -5 -44
0 -49 2 -59 30 -10 28 -15 30 -60 31 -68 0 -109 18 -136 59 -15 23 -46 47 -90
69 l-67 34 5 116 c10 209 12 217 50 241 19 12 44 37 56 57 l22 35 -6 400 c-6
384 -5 400 13 405 10 3 21 16 25 31 3 14 3 127 -1 252 l-7 227 55 -5 c30 -2
95 2 144 9 49 7 130 12 181 10 51 -1 97 0 103 4 20 13 -8 32 -75 51 -57 17
-64 21 -59 40 4 15 -1 26 -14 35 -11 8 -22 32 -27 57 -8 48 -25 47 -25 -2 0
-55 -40 -74 -75 -36 -24 26 -37 25 -73 -5 -35 -29 -87 -33 -132 -10 -23 12
-33 28 -44 68 -21 73 -36 171 -36 240 l0 57 43 0 c23 1 58 7 78 14 69 24 195
122 319 246 l125 125 46 -3 47 -3 6 -70 c11 -106 44 -291 55 -302 18 -18 30 2
20 36 -25 84 -39 223 -39 378 0 156 -1 168 -23 200 -12 19 -32 35 -44 37 -26
4 -24 -4 -67 277 -69 447 -106 776 -106 947 0 99 5 118 31 118 16 0 19 8 19
49 0 49 0 49 53 79 174 99 309 315 348 557 58 359 -170 733 -488 800 -195 41
-398 -11 -523 -135 -134 -131 -196 -343 -155 -526 36 -162 123 -367 200 -470
119 -157 278 -259 439 -279 l58 -8 -5 -51 c-23 -200 -16 -397 24 -703 18 -143
73 -467 101 -595 12 -56 11 -58 -14 -85 -30 -32 -48 -72 -48 -111 -1 -23 -24
-44 -178 -152 -237 -167 -272 -176 -280 -69 -4 68 -39 145 -86 192 -55 55
-117 84 -238 111 -23 5 -28 12 -28 35 0 24 8 32 57 57 31 16 70 46 87 67 42
53 49 148 15 227 -22 51 -22 54 -6 100 9 26 17 72 17 102 0 43 7 67 35 118 43
80 48 142 13 161 -13 7 -79 15 -148 19 -106 5 -136 11 -195 35 -79 33 -187 40
-263 17 -58 -17 -143 -103 -222 -222 -60 -91 -62 -97 -57 -145 7 -63 35 -130
94 -219 51 -75 57 -110 32 -183 -6 -19 -7 -38 -3 -43 12 -11 113 -40 141 -40
34 0 29 -27 -16 -75 -46 -50 -83 -120 -100 -189 -19 -77 -14 -257 10 -366 11
-52 23 -106 25 -120 2 -14 -6 -232 -19 -485 -17 -325 -20 -462 -13 -467 6 -4
22 -8 36 -8 23 0 30 -10 64 -97 21 -53 49 -140 63 -192 29 -107 33 -228 18
-502 l-7 -147 61 -220 c38 -137 61 -239 61 -271 l0 -51 -257 0 -258 0 -1 106
c-1 58 -7 123 -13 143 -6 20 -15 54 -21 76 -5 23 -25 58 -45 79 -19 21 -35 44
-35 51 0 7 -7 32 -15 56 -15 41 -50 308 -42 316 2 2 31 -20 65 -49 77 -67 156
-118 182 -118 24 0 24 -3 5 -40 -23 -45 0 -47 48 -4 23 21 44 41 45 46 5 12
52 9 52 -3 0 -7 -10 -27 -21 -46 -16 -25 -19 -37 -11 -45 9 -9 17 -7 30 5 21
19 42 22 42 7 0 -22 30 -8 49 24 27 43 26 62 -3 105 -12 20 -43 68 -68 106
-55 84 -69 98 -133 126 -87 37 -184 102 -195 130 -27 64 -125 129 -216 144
-22 3 -69 17 -105 30 l-64 23 1 79 c1 46 11 119 24 172 17 72 21 111 18 180
-4 79 -8 95 -39 146 -57 97 -162 154 -288 158 -57 2 -76 -3 -132 -30 -93 -46
-191 -139 -228 -216 -44 -91 -46 -127 -16 -227 14 -47 30 -123 36 -169 16
-126 51 -181 151 -232 l39 -20 -32 -22 c-51 -35 -88 -112 -99 -203 -5 -44 -13
-91 -19 -106 l-11 -28 -111 0 -112 0 7 137 c6 104 11 140 22 146 23 13 18 56
-9 61 -12 3 -204 16 -427 31 l-405 26 -257 -57 c-253 -56 -258 -58 -258 -82 0
-14 7 -30 15 -36 12 -9 16 -74 25 -376 5 -201 12 -403 14 -449 4 -75 2 -84
-15 -88 -22 -6 -26 -48 -6 -56 6 -3 -48 -6 -121 -6 l-134 -1 -29 -29 c-40 -41
-40 -91 0 -132 l29 -29 5707 0 5707 0 29 29 c40 41 40 91 0 132 l-29 29 -179
0 -178 0 34 22 c62 39 109 99 132 163 8 22 18 43 23 46 16 12 19 94 4 110 -7
8 -22 37 -32 64 -26 70 -105 146 -179 174 -68 25 -122 27 -202 6 l-59 -16 -25
33 c-157 201 -354 403 -487 496 -49 35 -95 67 -103 72 -12 6 -11 17 8 63 l23
56 111 -6 c89 -4 120 -2 149 10 41 17 81 71 74 99 -2 10 10 32 29 52 61 65 97
213 71 291 -14 39 -15 54 -5 83 19 57 -3 128 -73 234 -123 187 -272 349 -339
370 -54 16 -76 58 -31 58 29 0 79 48 103 99 20 43 34 57 88 88 77 46 98 71
107 130 6 41 4 47 -21 67 l-27 22 42 49 c45 53 62 87 54 109 -7 19 -24 25
-108 36 -55 8 -98 23 -192 71 -104 52 -131 62 -195 67 -212 20 -373 -49 -495
-211 -28 -38 -66 -77 -83 -88 -55 -33 -30 -96 40 -101 38 -3 42 -6 61 -51 18
-41 19 -50 7 -59 -11 -7 -11 -11 -1 -15 9 -4 7 -14 -9 -40 -22 -34 -22 -35 -2
-61 11 -15 23 -45 26 -67 4 -22 14 -45 22 -51 9 -7 26 -32 38 -56 26 -51 47
-56 135 -34 81 21 115 20 137 -4 20 -22 21 -42 10 -165 -4 -44 -2 -106 3 -139
l9 -58 -76 4 c-60 4 -92 12 -155 41 -78 37 -142 47 -162 27 -7 -7 -23 -5 -49
5 -45 20 -80 13 -116 -21 -25 -24 -27 -24 -62 -9 -97 40 -163 -2 -174 -113 -5
-45 -14 -68 -43 -107 -44 -59 -51 -84 -39 -130 11 -40 44 -66 115 -89 77 -25
112 -71 123 -160 6 -49 5 -52 -24 -66 -26 -13 -30 -21 -33 -63 -2 -32 2 -57
12 -73 12 -17 17 -56 18 -155 l3 -133 -66 -12 c-107 -20 -288 -115 -306 -160
-3 -8 2 -23 12 -34 19 -20 13 -37 -31 -96 -54 -73 -87 -214 -74 -322 17 -142
59 -231 154 -324 l28 -28 -212 0 -211 0 39 47 c133 160 144 353 30 523 -141
211 -452 241 -637 61 -96 -94 -147 -246 -123 -372 14 -79 51 -153 103 -213
l41 -46 -201 0 -201 0 0 35 c0 43 -24 58 -79 49 -73 -12 -106 2 -182 74 -70
65 -71 67 -65 106 4 22 25 78 47 125 23 47 61 145 86 216 24 72 49 135 54 140
6 6 70 10 151 10 l141 0 39 45 c107 122 113 131 113 175 0 55 -29 95 -129 180
-57 50 -75 71 -71 84 4 14 -1 20 -24 24 -22 5 -40 22 -72 68 -22 34 -54 69
-70 78 -19 10 -27 21 -23 31 39 92 45 135 33 223 l-13 87 39 76 c31 60 37 79
28 93 -7 12 -8 23 -1 36 10 18 58 216 58 240 0 7 7 29 15 50 11 26 19 34 28
27 7 -5 27 -12 44 -15 18 -4 51 -18 73 -33 44 -29 48 -28 81 29 15 27 34 20
52 -18 9 -19 24 -35 32 -35 23 0 33 -37 27 -106 -3 -39 0 -64 7 -68 12 -8 16
1 25 54 15 86 42 77 52 -18 4 -35 11 -65 17 -69 14 -9 27 18 27 60 0 50 17 47
41 -8 23 -51 39 -56 57 -18 14 32 16 76 3 120 -11 37 -101 130 -191 198 -36
26 -72 56 -80 65 -8 9 -42 27 -75 39 -33 13 -82 32 -110 44 -27 12 -51 22 -52
22 -1 0 4 62 12 136 10 92 11 153 5 190 -6 40 -5 57 4 64 7 6 20 22 29 36 10
14 35 34 58 45 29 14 42 27 46 47 4 22 11 27 34 27 36 0 47 21 41 81 -5 58 -1
65 102 147 103 82 115 131 72 279 -28 96 -38 112 -158 236 -108 111 -124 118
-277 123 -57 2 -118 6 -136 10 -39 7 -75 -10 -156 -72 -148 -113 -231 -255
-265 -449 -21 -124 -24 -205 -6 -205 6 0 12 -8 12 -19 0 -10 12 -26 26 -36 15
-9 23 -12 20 -6 -10 16 1 14 29 -5 14 -9 36 -14 50 -12 14 3 25 2 25 -3 0 -8
-46 -34 -170 -95 -36 -18 -98 -62 -138 -98 -40 -36 -82 -66 -93 -66 -11 0 -29
-4 -39 -10 -15 -8 -19 -5 -24 24 -7 36 6 354 29 726 15 251 36 351 116 570 38
104 47 120 95 165 30 28 54 58 54 68 0 10 8 17 20 17 11 0 29 9 40 20 11 11
30 20 43 20 33 0 39 10 22 36 -12 19 -12 23 0 28 22 8 19 18 -21 64 -19 23
-32 47 -29 53 4 5 -1 19 -10 30 -15 16 -17 31 -11 101 10 125 32 266 83 543
39 212 51 261 80 319 42 84 122 213 173 281 21 28 48 78 59 111 25 74 45 276
36 354 -21 185 80 454 242 642 21 24 244 369 496 766 l458 722 -281 305 c-155
168 -282 305 -283 305 -1 0 -168 -104 -372 -231z m-946 -4710 c-31 -82 -68
-233 -101 -419 -31 -171 -32 -184 -37 -565 l-6 -389 -37 -8 c-21 -4 -72 -29
-115 -55 l-77 -48 -24 -80 c-13 -44 -27 -96 -33 -115 -5 -19 -11 -108 -14
-198 -4 -136 -8 -173 -26 -224 l-23 -60 23 -17 c23 -18 23 -19 16 -179 -7
-147 -6 -162 9 -162 9 0 21 10 27 23 7 18 8 14 4 -16 -8 -49 2 -77 25 -77 20
0 30 26 30 79 0 42 20 112 31 106 7 -5 25 -122 21 -139 -6 -19 11 -46 28 -46
25 0 34 44 25 131 -4 39 -3 69 2 69 5 0 18 -32 28 -71 24 -85 28 -94 49 -86
14 6 16 17 11 74 -3 38 -12 91 -20 118 -50 175 -60 232 -60 350 0 97 5 136 23
200 13 44 29 97 34 117 9 31 15 37 32 32 12 -2 49 6 83 20 l62 24 17 -56 c40
-134 54 -200 54 -253 0 -49 -5 -62 -35 -103 -20 -25 -49 -53 -65 -61 -28 -14
-30 -20 -30 -69 0 -36 -5 -58 -15 -66 -11 -9 -14 -22 -10 -39 3 -16 -4 -49
-18 -86 -41 -103 -31 -271 21 -370 9 -18 85 -95 168 -173 148 -138 192 -195
165 -212 -49 -29 -320 -64 -378 -48 -24 7 -50 4 -96 -8 -81 -22 -90 -30 -83
-71 3 -18 9 -50 12 -70 3 -21 8 -45 11 -53 4 -8 5 -35 4 -60 -3 -48 30 -143
90 -262 l31 -61 56 7 c72 9 80 17 59 60 -37 79 -26 217 25 288 18 26 24 28 93
28 68 0 175 -16 175 -26 0 -2 -15 -34 -34 -71 -33 -66 -34 -73 -39 -220 -7
-174 -23 -282 -43 -290 -8 -3 -14 -20 -14 -42 0 -20 -7 -54 -15 -76 -8 -22
-14 -57 -15 -77 l0 -38 -435 0 -435 0 -10 24 c-19 52 -80 90 -190 121 -54 15
-56 16 -67 63 -6 26 -12 52 -14 57 -2 6 0 111 5 235 6 200 10 239 37 348 16
68 45 207 64 310 19 103 45 219 59 257 44 125 84 381 105 668 11 144 28 187
91 229 42 29 44 54 11 163 -11 39 -41 189 -67 335 -39 226 -47 293 -53 460 -6
168 -10 202 -29 242 l-21 47 37 18 c25 12 44 32 57 60 15 31 33 49 70 69 66
35 409 258 461 300 23 18 90 78 150 133 60 56 110 101 111 101 0 0 -8 -23 -18
-51z m-1793 -1514 c-9 -72 -38 -199 -58 -247 -28 -72 -33 -127 -14 -172 9 -22
14 -41 12 -43 -2 -3 -7 5 -11 16 -3 12 -11 21 -16 21 -6 0 -20 21 -31 47 -19
43 -20 59 -15 173 4 72 16 166 29 224 23 97 24 99 58 110 l35 11 8 -50 c4 -27
6 -68 3 -90z m4139 -697 c29 -13 29 -13 10 -69 -19 -51 -48 -85 -81 -93 -39
-10 -45 2 -24 42 11 20 20 53 20 72 0 56 24 71 75 48z m130 -114 c18 -12 28
-13 45 -4 24 13 77 -2 121 -33 32 -23 63 -16 85 19 23 35 58 31 182 -21 181
-76 195 -88 111 -98 -29 -4 -57 -11 -63 -17 -5 -5 -31 -10 -56 -10 -57 0 -184
-32 -237 -58 -63 -33 -81 -60 -93 -137 -5 -39 -10 -111 -10 -161 0 -97 -4
-106 -52 -118 -36 -8 -44 8 -17 35 19 19 21 28 15 78 -4 36 -13 61 -25 71 -12
10 -21 34 -25 73 -12 106 -48 162 -135 209 -40 22 -39 31 4 46 37 14 78 57
103 109 18 38 16 37 47 17z m453 -510 c13 -4 22 -14 22 -25 0 -31 37 -42 126
-36 104 6 113 1 90 -51 l-18 -39 -71 22 c-40 13 -102 26 -138 30 l-67 7 -6 40
c-9 57 3 67 62 52z m120 -229 c28 -9 54 -20 57 -25 3 -5 -10 -49 -30 -97 -33
-82 -34 -89 -18 -100 31 -23 41 -14 78 77 l38 89 26 -13 c107 -56 301 -238
453 -424 l101 -124 -37 -74 c-39 -76 -47 -139 -30 -217 15 -73 85 -167 149
-200 28 -15 18 -16 -179 -17 l-208 0 7 28 c3 15 15 36 25 47 26 25 67 12 95
-32 26 -42 37 -42 23 0 -17 51 -48 79 -82 74 l-30 -4 23 18 c29 24 98 25 123
2 10 -9 20 -14 23 -11 10 10 -35 56 -60 62 -32 8 -91 -19 -112 -51 -9 -13 -18
-22 -20 -20 -9 10 41 121 74 164 34 45 34 45 6 25 -38 -27 -57 -49 -81 -97
-25 -48 -27 -30 -7 49 9 33 14 61 11 63 -6 6 -33 -68 -42 -112 l-7 -38 -17 55
c-17 57 -49 118 -61 118 -4 0 1 -17 11 -38 16 -32 50 -147 50 -166 0 -4 -14 9
-30 28 -42 47 -87 62 -133 43 -42 -18 -62 -42 -22 -27 36 14 75 12 105 -5 l25
-14 -28 -1 c-54 0 -82 -28 -98 -97 -4 -18 -3 -33 2 -33 5 0 9 4 9 9 0 17 53
73 77 82 16 6 31 5 45 -2 19 -10 57 -81 58 -106 0 -10 -77 -13 -350 -13 -219
0 -350 4 -350 10 0 5 13 19 30 31 26 20 100 126 100 144 0 4 6 21 14 38 24 55
36 139 31 220 -3 56 -1 77 8 77 35 1 38 16 16 76 -27 74 -76 151 -135 214
l-46 49 40 50 c49 62 89 144 98 201 l7 42 62 -6 c34 -3 85 -13 113 -21z m-512
-32 c-3 -10 -8 -39 -12 -65 -9 -66 -31 -63 -36 5 -3 38 -1 55 11 65 22 18 43
15 37 -5z m-4035 -154 c-20 -110 -43 -564 -39 -727 3 -89 3 -173 0 -187 l-4
-25 -149 0 -149 0 0 34 c0 18 -7 51 -17 72 -25 60 -20 171 11 236 30 63 56
159 56 206 0 26 11 46 43 83 24 27 90 121 148 208 57 87 105 158 106 157 2 -2
-1 -27 -6 -57z m3833 -161 c3 -13 6 -40 6 -60 l0 -38 -43 0 c-76 0 -197 13
-197 20 0 21 156 97 201 99 20 1 28 -5 33 -21z m344 -116 l30 -38 -42 -27
c-24 -15 -46 -27 -50 -27 -8 0 -8 77 0 108 9 32 28 27 62 -16z m-611 -12 c-7
-26 36 -67 108 -103 30 -16 52 -33 49 -38 -8 -13 -20 -8 -121 47 l-82 45 20
34 c23 39 34 45 26 15z m693 -142 c19 -76 16 -176 -5 -236 -11 -29 -22 -51
-25 -50 -3 2 -61 32 -128 68 -106 56 -120 66 -102 74 16 7 20 16 15 33 -5 21
-2 23 26 21 39 -4 68 31 76 88 4 35 11 43 52 67 l46 26 17 -22 c9 -12 22 -43
28 -69z m-657 22 c49 -26 90 -54 96 -67 7 -14 29 -28 65 -39 31 -10 56 -23 56
-30 0 -9 -255 -177 -292 -192 -15 -6 -48 85 -57 157 -6 45 -5 85 1 109 23 88
32 112 39 110 4 -2 45 -23 92 -48z m-7102 -40 c-2 -45 -9 -79 -17 -88 -8 -7
-14 -20 -14 -28 0 -10 -12 -14 -40 -14 -22 0 -63 -9 -92 -20 -29 -11 -74 -20
-99 -20 -25 0 -68 -7 -94 -15 -27 -8 -51 -12 -53 -10 -2 2 -1 63 3 135 6 116
9 130 24 125 9 -4 51 -16 95 -27 93 -24 162 -19 228 16 23 13 48 22 53 21 6
-1 9 -31 6 -75z m1661 -100 c-3 -133 -13 -246 -28 -318 -5 -24 -2 -38 11 -52
18 -20 17 -20 -25 -20 l-42 0 7 158 c16 371 26 426 64 387 13 -13 15 -38 13
-155z m7318 50 c0 -27 -3 -50 -7 -50 -5 1 -20 19 -36 41 l-27 40 22 9 c43 17
48 13 48 -40z m102 24 c15 -8 30 -19 34 -25 10 -16 -65 -78 -95 -79 -22 0 -23
3 -17 38 3 20 6 50 6 65 0 25 3 27 23 21 12 -3 34 -13 49 -20z m78 -73 c15
-29 13 -31 -32 -31 l-41 0 23 25 c28 30 36 31 50 6z m-316 -6 c4 -10 -1 -15
-14 -15 -20 0 -26 11 -13 23 10 11 20 8 27 -8z m-1177 -157 c48 -27 52 -31 42
-50 -16 -30 -90 -108 -102 -108 -6 0 -18 -6 -26 -14 -22 -20 -121 -56 -152
-56 -22 0 -28 6 -33 33 -8 46 -9 314 -1 327 6 10 102 -37 272 -132z m-304 35
c4 -54 7 -135 7 -180 l0 -83 -39 0 c-42 0 -83 12 -148 42 -46 21 -146 114
-140 131 5 15 278 186 298 187 13 0 17 -17 22 -97z m1547 -21 c0 -16 -69 -74
-82 -69 -8 2 -19 21 -25 41 l-11 36 59 0 c32 0 59 -4 59 -8z m60 -77 c0 -45
-4 -75 -10 -75 -15 0 -81 29 -98 42 -12 10 -5 20 39 60 30 26 57 48 62 48 4 0
7 -34 7 -75z m94 21 c25 -29 46 -56 46 -58 0 -9 -78 -38 -102 -38 -18 0 -20 4
-14 38 3 20 6 54 6 75 0 20 4 37 9 37 5 0 30 -24 55 -54z m93 48 c23 -6 22
-19 -5 -62 l-15 -23 -39 37 c-21 21 -38 42 -38 46 0 9 65 10 97 2z m-9372
-221 c17 -11 10 -12 -47 -13 -60 0 -79 6 -64 21 10 9 92 3 111 -8z"/>
<path d="M5155 2890 c-177 -35 -343 -176 -508 -430 -202 -312 -307 -672 -307
-1050 0 -230 33 -430 99 -595 69 -171 206 -332 340 -398 64 -31 70 -32 191
-32 107 0 133 4 183 24 126 50 244 167 316 315 73 150 103 272 104 426 0 162
-33 260 -88 260 -33 0 -47 -30 -80 -175 -32 -140 -71 -244 -125 -336 -134
-227 -309 -284 -433 -139 -118 138 -176 375 -164 674 6 166 26 277 76 425 102
303 343 639 464 645 68 3 82 -107 42 -329 -29 -162 -29 -227 1 -290 38 -82
109 -79 195 7 125 128 219 347 219 513 0 318 -242 541 -525 485z m113 -317
c-10 -2 -26 -2 -35 0 -10 3 -2 5 17 5 19 0 27 -2 18 -5z m81 -66 c12 -24 21
-50 20 -58 0 -8 -7 4 -15 26 -8 22 -27 52 -42 68 -23 25 -24 28 -5 18 11 -6
30 -30 42 -54z m28 -169 c-2 -18 -4 -4 -4 32 0 36 2 50 4 33 2 -18 2 -48 0
-65z m-10 -70 c-3 -7 -5 -2 -5 12 0 14 2 19 5 13 2 -7 2 -19 0 -25z m-810
-880 c-1 -123 -2 -138 -7 -78 -6 65 -2 230 6 230 1 0 2 -69 1 -152z m20 -60
c-2 -13 -4 -5 -4 17 -1 22 1 32 4 23 2 -10 2 -28 0 -40z m10 -120 c-3 -7 -5
-2 -5 12 0 14 2 19 5 13 2 -7 2 -19 0 -25z m-20 -35 c-3 -10 -5 -4 -5 12 0 17
2 24 5 18 2 -7 2 -21 0 -30z m883 -421 c0 -5 -7 -17 -15 -28 -14 -18 -14 -17
-4 9 12 27 19 34 19 19z m-45 -79 c-44 -70 -94 -127 -140 -163 -57 -44 -150
-90 -180 -89 -11 0 -2 6 20 13 104 33 213 119 276 217 17 27 33 49 36 49 3 0
-3 -12 -12 -27z m-745 -128 c19 -19 32 -35 29 -35 -3 0 -20 16 -39 35 -19 19
-32 35 -29 35 3 0 20 -16 39 -35z m160 -105 c8 -5 11 -10 5 -10 -5 0 -17 5
-25 10 -8 5 -10 10 -5 10 6 0 17 -5 25 -10z m93 -27 c-7 -2 -19 -2 -25 0 -7 3
-2 5 12 5 14 0 19 -2 13 -5z m140 0 c-7 -2 -19 -2 -25 0 -7 3 -2 5 12 5 14 0
19 -2 13 -5z"/>
<path d="M630 2824 c-40 -16 -40 -12 -34 -718 7 -903 20 -1153 74 -1373 13
-52 21 -124 23 -213 2 -98 8 -145 20 -173 9 -21 20 -37 24 -35 5 1 37 18 73
36 47 23 119 44 255 73 105 23 213 50 241 60 103 39 184 140 184 230 0 33 -6
47 -33 74 -45 45 -95 52 -189 26 -70 -19 -98 -24 -248 -36 l-65 -5 -3 510 c-3
410 0 562 15 773 10 144 18 318 18 387 0 116 -2 129 -28 181 -33 68 -109 142
-180 174 -55 25 -122 38 -147 29z m259 -224 c0 -8 -7 1 -14 20 -18 46 -17 64
0 25 8 -16 14 -37 14 -45z m8 -52 c-3 -7 -5 -2 -5 12 0 14 2 19 5 13 2 -7 2
-19 0 -25z m10 -55 c-3 -10 -5 -4 -5 12 0 17 2 24 5 18 2 -7 2 -21 0 -30z m10
-105 c-2 -18 -4 -6 -4 27 0 33 2 48 4 33 2 -15 2 -42 0 -60z m-100 -830 c-2
-24 -4 -7 -4 37 0 44 2 63 4 43 2 -21 2 -57 0 -80z m-170 -410 c-2 -13 -4 -3
-4 22 0 25 2 35 4 23 2 -13 2 -33 0 -45z m10 -110 c-2 -13 -4 -3 -4 22 0 25 2
35 4 23 2 -13 2 -33 0 -45z m10 -75 c-3 -10 -5 -2 -5 17 0 19 2 27 5 18 2 -10
2 -26 0 -35z m10 -70 c-3 -10 -5 -4 -5 12 0 17 2 24 5 18 2 -7 2 -21 0 -30z
m10 -55 c-3 -8 -6 -5 -6 6 -1 11 2 17 5 13 3 -3 4 -12 1 -19z m10 -60 c-3 -8
-6 -5 -6 6 -1 11 2 17 5 13 3 -3 4 -12 1 -19z m760 -100 c-3 -8 -6 -5 -6 6 -1
11 2 17 5 13 3 -3 4 -12 1 -19z m-294 -25 c-7 -2 -21 -2 -30 0 -10 3 -4 5 12
5 17 0 24 -2 18 -5z m287 -1 c0 -5 -7 -17 -15 -28 -14 -18 -14 -17 -4 9 12 27
19 34 19 19z m-51 -78 c-13 -14 -33 -30 -44 -36 -11 -6 -2 6 20 25 47 43 58
48 24 11z"/>
<path d="M5807 2786 c-83 -30 -95 -67 -48 -150 37 -65 76 -191 99 -314 15 -86
17 -159 14 -638 -3 -451 -1 -562 13 -665 27 -211 62 -321 125 -393 76 -87 205
-112 240 -46 5 10 15 65 20 122 18 178 107 493 180 638 47 94 96 167 119 179
72 39 98 -74 111 -474 9 -300 22 -374 82 -486 54 -102 138 -153 181 -111 19
19 19 25 8 109 -15 123 -14 243 5 391 21 160 23 441 5 542 -32 175 -95 296
-186 356 -95 62 -193 65 -310 8 -68 -33 -170 -117 -210 -172 -16 -23 -32 -42
-35 -42 -3 0 1 69 8 153 20 221 20 590 -1 696 -30 160 -94 249 -207 292 -59
22 -157 24 -213 5z m303 -191 c22 -44 42 -93 45 -110 3 -17 -3 -9 -13 20 -32
85 -71 155 -115 203 l-41 47 43 -40 c26 -24 58 -71 81 -120z m57 -167 c-3 -8
-6 -5 -6 6 -1 11 2 17 5 13 3 -3 4 -12 1 -19z m10 -50 c-3 -8 -6 -5 -6 6 -1
11 2 17 5 13 3 -3 4 -12 1 -19z m510 -614 c-3 -3 -12 -4 -19 -1 -8 3 -5 6 6 6
11 1 17 -2 13 -5z m28 -14 c3 -5 1 -10 -4 -10 -6 0 -11 5 -11 10 0 6 2 10 4
10 3 0 8 -4 11 -10z m75 -90 c11 -22 19 -40 16 -40 -4 0 -46 68 -46 76 0 13
12 -1 30 -36z m-703 -102 c-2 -18 -4 -4 -4 32 0 36 2 50 4 33 2 -18 2 -48 0
-65z m-180 -425 c-2 -16 -4 -5 -4 22 0 28 2 40 4 28 2 -13 2 -35 0 -50z m810
-215 c-1 -40 -3 -8 -3 72 0 80 2 112 3 73 2 -40 2 -106 0 -145z m-800 120 c-2
-13 -4 -5 -4 17 -1 22 1 32 4 23 2 -10 2 -28 0 -40z m10 -65 c-3 -10 -5 -4 -5
12 0 17 2 24 5 18 2 -7 2 -21 0 -30z m800 -190 c-3 -10 -5 -2 -5 17 0 19 2 27
5 18 2 -10 2 -26 0 -35z m10 -55 c-3 -7 -5 -2 -5 12 0 14 2 19 5 13 2 -7 2
-19 0 -25z"/>
<path d="M9202 2238 c-18 -18 -15 -76 9 -170 29 -118 37 -349 16 -483 -18
-110 -54 -244 -94 -345 -72 -183 -138 -300 -157 -279 -2 2 -15 124 -30 271
-15 147 -35 301 -46 343 -50 195 -184 329 -331 330 -102 0 -120 -45 -79 -203
29 -116 66 -327 95 -539 14 -104 34 -225 45 -269 41 -162 120 -284 217 -336
68 -38 118 -44 189 -23 48 14 69 28 124 83 76 77 115 143 198 337 98 229 135
361 152 541 25 269 -55 566 -191 705 -49 51 -90 64 -117 37z m235 -330 c-3 -8
-6 -5 -6 6 -1 11 2 17 5 13 3 -3 4 -12 1 -19z m20 -80 c-3 -7 -5 -2 -5 12 0
14 2 19 5 13 2 -7 2 -19 0 -25z m10 -50 c-3 -7 -5 -2 -5 12 0 14 2 19 5 13 2
-7 2 -19 0 -25z m10 -70 c-2 -13 -4 -5 -4 17 -1 22 1 32 4 23 2 -10 2 -28 0
-40z m-698 -23 c0 -5 -6 1 -14 15 -8 14 -14 30 -14 35 0 6 6 -1 14 -15 8 -14
14 -29 14 -35z m30 -77 c12 -34 21 -67 20 -72 0 -6 -8 12 -18 39 -27 76 -33
95 -28 95 3 0 15 -28 26 -62z m678 -40 c-2 -18 -4 -4 -4 32 0 36 2 50 4 33 2
-18 2 -48 0 -65z m-650 -70 c-3 -8 -6 -5 -6 6 -1 11 2 17 5 13 3 -3 4 -12 1
-19z m10 -40 c-3 -8 -6 -5 -6 6 -1 11 2 17 5 13 3 -3 4 -12 1 -19z m630 -15
c-3 -10 -5 -4 -5 12 0 17 2 24 5 18 2 -7 2 -21 0 -30z m-620 -35 c-3 -7 -5 -2
-5 12 0 14 2 19 5 13 2 -7 2 -19 0 -25z m10 -50 c-3 -7 -5 -2 -5 12 0 14 2 19
5 13 2 -7 2 -19 0 -25z m10 -50 c-3 -8 -6 -5 -6 6 -1 11 2 17 5 13 3 -3 4 -12
1 -19z m253 -378 c-17 -33 -33 -60 -35 -60 -3 0 8 27 25 60 17 33 33 60 35 60
3 0 -8 -27 -25 -60z m-70 -113 c0 -2 -12 -14 -27 -28 l-28 -24 24 28 c23 25
31 32 31 24z"/>
<path d="M1927 1940 c-103 -26 -198 -104 -245 -200 -24 -49 -27 -66 -28 -165
0 -107 -1 -111 -32 -153 -62 -87 -87 -333 -49 -482 56 -213 212 -361 410 -389
251 -35 452 131 529 434 32 127 32 392 0 508 -56 203 -191 363 -362 428 -59
22 -170 32 -223 19z m111 -27 c-16 -2 -40 -2 -55 0 -16 2 -3 4 27 4 30 0 43
-2 28 -4z m-101 -9 c-3 -3 -12 -4 -19 -1 -8 3 -5 6 6 6 11 1 17 -2 13 -5z
m-58 -18 c-2 -2 -15 -9 -29 -15 -24 -11 -24 -11 -6 3 16 13 49 24 35 12z
m-104 -78 c-27 -29 -50 -55 -52 -57 -2 -2 -3 -1 -3 3 0 8 90 106 98 106 2 0
-17 -24 -43 -52z m-74 -119 c-5 -13 -10 -19 -10 -12 -1 15 10 45 15 40 3 -2 0
-15 -5 -28z m-14 -66 c-3 -10 -5 -4 -5 12 0 17 2 24 5 18 2 -7 2 -21 0 -30z
m358 8 c169 -76 223 -383 112 -632 -30 -68 -58 -93 -102 -93 -61 0 -94 46
-139 197 -15 48 -29 93 -32 100 -3 10 5 12 31 9 76 -9 83 34 23 149 -39 75
-43 88 -43 156 0 72 1 76 33 104 37 34 61 36 117 10z m-358 -108 c-3 -10 -5
-4 -5 12 0 17 2 24 5 18 2 -7 2 -21 0 -30z m630 -95 c-3 -8 -6 -5 -6 6 -1 11
2 17 5 13 3 -3 4 -12 1 -19z m10 -60 c-3 -7 -5 -2 -5 12 0 14 2 19 5 13 2 -7
2 -19 0 -25z m10 -150 c-2 -24 -4 -7 -4 37 0 44 2 63 4 43 2 -21 2 -57 0 -80z
m-510 -65 c-3 -10 -5 -4 -5 12 0 17 2 24 5 18 2 -7 2 -21 0 -30z m57 -183 c10
-19 30 -48 45 -65 l26 -30 -32 28 c-35 33 -79 122 -87 182 -5 31 -2 26 12 -20
10 -33 26 -76 36 -95z"/>
<path d="M7838 1940 c-275 -47 -513 -257 -618 -548 -80 -220 -76 -486 8 -667
37 -79 78 -124 144 -160 44 -25 64 -30 123 -30 137 0 250 83 351 257 l47 83
14 -70 c20 -97 58 -171 118 -231 70 -70 125 -98 197 -98 46 -1 61 4 82 23 42
40 41 55 -9 133 -25 40 -53 95 -61 123 -25 79 -28 214 -10 370 36 301 39 341
32 376 -7 42 -59 100 -112 127 l-36 18 59 36 c70 44 107 81 126 128 26 62 -13
110 -104 129 -57 12 -280 13 -351 1z m249 -246 c-3 -3 -12 -4 -19 -1 -8 3 -5
6 6 6 11 1 17 -2 13 -5z m-50 -10 c-3 -3 -12 -4 -19 -1 -8 3 -5 6 6 6 11 1 17
-2 13 -5z m-187 -49 c-14 -8 -29 -14 -35 -14 -5 0 1 6 15 14 14 8 30 14 35 14
6 0 -1 -6 -15 -14z m-26 -211 c-114 -284 -228 -499 -278 -522 -41 -18 -51 6
-50 117 1 110 20 197 65 289 33 68 124 173 173 200 34 19 140 61 143 58 2 -1
-22 -65 -53 -142z m364 41 c0 -16 -2 -15 -8 5 -11 34 -11 60 0 35 5 -11 8 -29
8 -40z m9 -67 c-3 -8 -6 -5 -6 6 -1 11 2 17 5 13 3 -3 4 -12 1 -19z m-80 -410
c-3 -7 -5 -2 -5 12 0 14 2 19 5 13 2 -7 2 -19 0 -25z m-20 -50 c-2 -13 -4 -5
-4 17 -1 22 1 32 4 23 2 -10 2 -28 0 -40z m-720 -5 c-3 -10 -5 -4 -5 12 0 17
2 24 5 18 2 -7 2 -21 0 -30z m494 -20 c-12 -20 -14 -14 -5 12 4 9 9 14 11 11
3 -2 0 -13 -6 -23z m-36 -82 c-21 -43 -29 -39 -8 4 9 19 18 33 21 31 2 -2 -4
-18 -13 -35z m-438 7 c-3 -8 -6 -5 -6 6 -1 11 2 17 5 13 3 -3 4 -12 1 -19z
m43 -63 c13 -14 21 -25 18 -25 -2 0 -15 11 -28 25 -13 14 -21 25 -18 25 2 0
15 -11 28 -25z m605 -175 l29 -35 -30 27 c-16 15 -37 42 -47 60 -17 32 -17 32
0 8 10 -13 31 -40 48 -60z m56 -47 c13 -16 12 -17 -3 -4 -10 7 -18 15 -18 17
0 8 8 3 21 -13z"/>
<path d="M10047 1940 c-103 -26 -198 -104 -245 -200 -24 -49 -27 -66 -28 -165
0 -107 -1 -111 -32 -153 -62 -87 -87 -333 -49 -482 56 -213 212 -361 410 -389
251 -35 452 131 529 434 32 127 32 392 0 508 -56 203 -191 363 -362 428 -59
22 -170 32 -223 19z m111 -27 c-16 -2 -40 -2 -55 0 -16 2 -3 4 27 4 30 0 43
-2 28 -4z m-101 -9 c-3 -3 -12 -4 -19 -1 -8 3 -5 6 6 6 11 1 17 -2 13 -5z
m-58 -18 c-2 -2 -15 -9 -29 -15 -24 -11 -24 -11 -6 3 16 13 49 24 35 12z
m-104 -78 c-27 -29 -50 -55 -52 -57 -2 -2 -3 -1 -3 3 0 8 90 106 98 106 2 0
-17 -24 -43 -52z m-74 -119 c-5 -13 -10 -19 -10 -12 -1 15 10 45 15 40 3 -2 0
-15 -5 -28z m-14 -66 c-3 -10 -5 -4 -5 12 0 17 2 24 5 18 2 -7 2 -21 0 -30z
m358 8 c169 -76 223 -383 112 -632 -30 -68 -58 -93 -102 -93 -61 0 -94 46
-139 197 -15 48 -29 93 -32 100 -3 10 5 12 31 9 76 -9 83 34 23 149 -39 75
-43 88 -43 156 0 72 1 76 33 104 37 34 61 36 117 10z m-358 -108 c-3 -10 -5
-4 -5 12 0 17 2 24 5 18 2 -7 2 -21 0 -30z m630 -95 c-3 -8 -6 -5 -6 6 -1 11
2 17 5 13 3 -3 4 -12 1 -19z m10 -60 c-3 -7 -5 -2 -5 12 0 14 2 19 5 13 2 -7
2 -19 0 -25z m10 -150 c-2 -24 -4 -7 -4 37 0 44 2 63 4 43 2 -21 2 -57 0 -80z
m-510 -65 c-3 -10 -5 -4 -5 12 0 17 2 24 5 18 2 -7 2 -21 0 -30z m57 -183 c10
-19 30 -48 45 -65 l26 -30 -32 28 c-35 33 -79 122 -87 182 -5 31 -2 26 12 -20
10 -33 26 -76 36 -95z"/>
<path d="M3019 1916 c-74 -21 -165 -75 -215 -128 -189 -202 -107 -455 212
-648 201 -122 226 -150 209 -237 -8 -46 -73 -110 -120 -119 -90 -17 -192 59
-236 176 -23 59 -28 65 -53 65 -50 0 -71 -42 -71 -138 1 -69 5 -91 28 -138 42
-88 98 -143 185 -186 70 -35 83 -38 161 -38 105 0 169 21 248 79 113 83 176
211 176 356 0 171 -71 270 -309 431 -140 94 -170 124 -159 158 8 27 41 35 123
29 52 -4 83 -14 135 -42 38 -20 82 -36 98 -36 71 0 115 54 112 138 -4 115
-123 240 -265 278 -65 17 -197 17 -259 0z m138 -282 c-3 -3 -12 -4 -19 -1 -8
3 -5 6 6 6 11 1 17 -2 13 -5z m134 -21 c13 -16 12 -17 -3 -4 -17 13 -22 21
-14 21 2 0 10 -8 17 -17z m4 -411 c-5 -5 -75 45 -75 54 0 2 18 -8 40 -22 22
-15 38 -29 35 -32z m55 -47 c13 -14 21 -25 18 -25 -2 0 -15 11 -28 25 -13 14
-21 25 -18 25 2 0 15 -11 28 -25z m-120 -328 c0 -2 -12 -14 -27 -28 l-28 -24
24 28 c23 25 31 32 31 24z m-65 -57 c-3 -5 -12 -10 -18 -10 -7 0 -6 4 3 10 19
12 23 12 15 0z m-128 -16 c-3 -3 -12 -4 -19 -1 -8 3 -5 6 6 6 11 1 17 -2 13
-5z m90 0 c-3 -3 -12 -4 -19 -1 -8 3 -5 6 6 6 11 1 17 -2 13 -5z"/>
<path d="M11129 1916 c-74 -21 -165 -75 -215 -128 -189 -202 -107 -455 212
-648 201 -122 226 -150 209 -237 -8 -46 -73 -110 -120 -119 -90 -17 -192 59
-236 176 -23 59 -28 65 -53 65 -50 0 -71 -42 -71 -138 1 -69 5 -91 28 -138 42
-88 98 -143 185 -186 70 -35 83 -38 161 -38 105 0 169 21 248 79 113 83 176
211 176 356 0 171 -71 270 -309 431 -140 94 -170 124 -159 158 8 27 41 35 123
29 52 -4 83 -14 135 -42 38 -20 82 -36 98 -36 71 0 115 54 112 138 -4 115
-123 240 -265 278 -65 17 -197 17 -259 0z m138 -282 c-3 -3 -12 -4 -19 -1 -8
3 -5 6 6 6 11 1 17 -2 13 -5z m134 -21 c13 -16 12 -17 -3 -4 -10 7 -18 15 -18
17 0 8 8 3 21 -13z m4 -411 c-5 -5 -75 45 -75 54 0 2 18 -8 40 -22 22 -15 38
-29 35 -32z m55 -47 c13 -14 21 -25 18 -25 -2 0 -15 11 -28 25 -13 14 -21 25
-18 25 2 0 15 -11 28 -25z m-120 -328 c0 -2 -12 -14 -27 -28 l-28 -24 24 28
c23 25 31 32 31 24z m-65 -57 c-3 -5 -12 -10 -18 -10 -7 0 -6 4 3 10 19 12 23
12 15 0z m-128 -16 c-3 -3 -12 -4 -19 -1 -8 3 -5 6 6 6 11 1 17 -2 13 -5z m90
0 c-3 -3 -12 -4 -19 -1 -8 3 -5 6 6 6 11 1 17 -2 13 -5z"/>
</g>
</svg>
